<svg width="259" height="226" viewBox="0 0 259 226" fill="none" xmlns="http://www.w3.org/2000/svg">
<path d="M125.29 69.5835L199.383 26.556L225.99 43.3636L227 59.499V76.3066L157.285 115.973V159H142.13V109.249L203.784 72.7894C216.543 65.2443 211.182 45.7167 196.352 45.7167L168.062 61.1797L138.088 77.6512L125.29 69.5835Z" fill="url(#paint0_linear_769_2226)"/>
<path d="M32 37.6491L95.6529 0L105.756 10.7569L51.5337 40.6744L68.7098 58.4905L123.606 27.9006L132.699 37.649L78.8135 68.2389L95.316 86.0549L125.611 69.2624L138.409 77.3314L91.6114 103.535L32 37.6491Z" fill="url(#paint1_linear_769_2226)"/>
<path d="M37.0002 217C35.8802 217 35.3202 216.44 35.3202 215.32V191.56C35.3202 190.44 35.8802 189.88 37.0002 189.88H51.3602C52.4802 189.88 53.0402 190.44 53.0402 191.56C53.0402 192.68 52.4802 193.24 51.3602 193.24H38.6802V201.64H46.6402C47.7602 201.64 48.3202 202.2 48.3202 203.32C48.3202 204.44 47.7602 205 46.6402 205H38.6802V213.64H51.3602C52.4802 213.64 53.0402 214.2 53.0402 215.32C53.0402 216.44 52.4802 217 51.3602 217H37.0002ZM60.0217 207.6C59.6484 207.6 59.3217 207.46 59.0417 207.18C58.7617 206.9 58.6217 206.573 58.6217 206.2C58.6217 205.813 58.7617 205.487 59.0417 205.22C59.3217 204.94 59.6484 204.8 60.0217 204.8H71.0617C71.4484 204.8 71.7751 204.94 72.0417 205.22C72.3217 205.487 72.4617 205.813 72.4617 206.2C72.4617 206.573 72.3217 206.9 72.0417 207.18C71.7751 207.46 71.4484 207.6 71.0617 207.6H60.0217ZM81.6486 217C80.5286 217 79.9686 216.44 79.9686 215.32V191.56C79.9686 190.44 80.5286 189.88 81.6486 189.88H91.0086C93.4486 189.88 95.3153 190.533 96.6086 191.84C97.9153 193.133 98.5686 195 98.5686 197.44V198.64C98.5686 201.08 97.9153 202.953 96.6086 204.26C95.3153 205.553 93.4486 206.2 91.0086 206.2H83.3286V215.32C83.3286 216.44 82.7686 217 81.6486 217ZM83.3286 202.84H91.0086C92.5286 202.84 93.6086 202.52 94.2486 201.88C94.8886 201.24 95.2086 200.16 95.2086 198.64V197.44C95.2086 195.933 94.8886 194.86 94.2486 194.22C93.6086 193.567 92.5286 193.24 91.0086 193.24H83.3286V202.84ZM110.74 217C108.5 217 106.833 216.453 105.74 215.36C104.647 214.267 104.1 212.6 104.1 210.36C104.1 208.12 104.64 206.453 105.72 205.36C106.813 204.267 108.487 203.72 110.74 203.72H119.2C119.12 202.32 118.753 201.367 118.1 200.86C117.447 200.34 116.327 200.08 114.74 200.08H112.42C111.087 200.08 110.093 200.173 109.44 200.36C108.787 200.533 108.327 200.853 108.06 201.32C107.82 201.88 107.573 202.267 107.32 202.48C107.067 202.693 106.687 202.8 106.18 202.8C105.62 202.8 105.18 202.647 104.86 202.34C104.54 202.02 104.447 201.6 104.58 201.08C104.98 199.573 105.813 198.473 107.08 197.78C108.36 197.073 110.14 196.72 112.42 196.72H114.74C117.407 196.72 119.38 197.36 120.66 198.64C121.94 199.92 122.58 201.893 122.58 204.56V215.32C122.58 216.44 122.02 217 120.9 217C119.78 217 119.22 216.44 119.22 215.32V214.42C117.793 216.14 115.713 217 112.98 217H110.74ZM110.74 213.64H112.98C113.967 213.64 114.893 213.553 115.76 213.38C116.627 213.193 117.367 212.86 117.98 212.38C118.607 211.9 119.02 211.213 119.22 210.32V207.08H110.74C109.42 207.08 108.54 207.3 108.1 207.74C107.673 208.18 107.46 209.053 107.46 210.36C107.46 211.68 107.673 212.56 108.1 213C108.54 213.427 109.42 213.64 110.74 213.64ZM132.195 217C131.075 217 130.515 216.44 130.515 215.32V198.4C130.515 197.28 131.075 196.72 132.195 196.72C133.315 196.72 133.875 197.28 133.875 198.4V199.96C134.662 198.893 135.662 198.087 136.875 197.54C138.102 196.993 139.502 196.72 141.075 196.72C142.195 196.72 142.755 197.28 142.755 198.4C142.755 199.52 142.195 200.08 141.075 200.08C138.769 200.08 137.009 200.507 135.795 201.36C134.582 202.213 133.942 203.34 133.875 204.74V215.32C133.875 216.44 133.315 217 132.195 217ZM149.266 217C148.146 217 147.586 216.44 147.586 215.32V190.52C147.586 189.4 148.146 188.84 149.266 188.84C150.386 188.84 150.946 189.4 150.946 190.52V205.54L160.466 197.36C161.319 196.627 162.106 196.68 162.826 197.52C163.559 198.373 163.506 199.16 162.666 199.88L155.366 206.18L162.346 214.12C163.092 214.987 163.052 215.773 162.226 216.48C161.372 217.213 160.572 217.16 159.826 216.32L152.806 208.4L150.946 210V215.32C150.946 216.44 150.386 217 149.266 217ZM169.018 193.44C167.752 193.44 167.118 192.8 167.118 191.52V190.34C167.118 189.087 167.752 188.46 169.018 188.46H170.178C171.392 188.46 171.998 189.087 171.998 190.34V191.52C171.998 192.8 171.392 193.44 170.178 193.44H169.018ZM169.578 217C168.458 217 167.898 216.44 167.898 215.32V198.4C167.898 197.28 168.458 196.72 169.578 196.72C170.698 196.72 171.258 197.28 171.258 198.4V215.32C171.258 216.44 170.698 217 169.578 217ZM181.258 217C180.138 217 179.578 216.44 179.578 215.32V198.4C179.578 197.28 180.138 196.72 181.258 196.72C182.378 196.72 182.938 197.28 182.938 198.4V199.06C184.351 197.5 186.431 196.72 189.178 196.72H190.298C192.965 196.72 194.938 197.36 196.218 198.64C197.498 199.92 198.138 201.893 198.138 204.56V215.32C198.138 216.44 197.578 217 196.458 217C195.338 217 194.778 216.44 194.778 215.32V204.56C194.778 202.813 194.458 201.633 193.818 201.02C193.191 200.393 192.018 200.08 190.298 200.08H189.178C187.578 200.08 186.185 200.267 184.998 200.64C183.811 201 183.125 201.573 182.938 202.36V215.32C182.938 216.44 182.378 217 181.258 217ZM210.862 225C209.249 225 207.976 224.673 207.042 224.02C206.122 223.367 205.529 222.373 205.262 221.04C205.169 220.48 205.269 220.04 205.562 219.72C205.856 219.4 206.302 219.24 206.902 219.24C207.409 219.24 207.776 219.373 208.002 219.64C208.242 219.92 208.449 220.333 208.622 220.88C208.782 221.173 209.029 221.373 209.362 221.48C209.709 221.587 210.209 221.64 210.862 221.64H218.302C219.302 221.64 219.949 221.48 220.242 221.16C220.549 220.853 220.702 220.213 220.702 219.24V214.58C219.982 215.367 219.089 215.967 218.022 216.38C216.969 216.793 215.782 217 214.462 217H212.942C210.289 217 208.316 216.36 207.022 215.08C205.742 213.8 205.102 211.84 205.102 209.2V204.56C205.102 201.88 205.736 199.907 207.002 198.64C208.282 197.36 210.262 196.72 212.942 196.72H216.222C217.169 196.72 218.016 196.86 218.762 197.14C219.522 197.42 220.169 197.847 220.702 198.42V198.4C220.702 197.28 221.262 196.72 222.382 196.72C223.502 196.72 224.062 197.28 224.062 198.4V219.24C224.062 221.2 223.589 222.647 222.642 223.58C221.709 224.527 220.262 225 218.302 225H210.862ZM212.942 213.64H214.462C216.222 213.64 217.702 213.42 218.902 212.98C220.102 212.54 220.702 211.84 220.702 210.88V202.88C220.702 201.8 220.309 201.067 219.522 200.68C218.749 200.28 217.649 200.08 216.222 200.08H212.942C211.222 200.08 210.042 200.387 209.402 201C208.776 201.613 208.462 202.8 208.462 204.56V209.2C208.462 210.893 208.776 212.06 209.402 212.7C210.029 213.327 211.209 213.64 212.942 213.64Z" fill="white"/>
<defs>
<linearGradient id="paint0_linear_769_2226" x1="136" y1="-97" x2="129.501" y2="159" gradientUnits="userSpaceOnUse">
<stop stop-color="#47B04E"/>
<stop offset="1" stop-color="#006999"/>
</linearGradient>
<linearGradient id="paint1_linear_769_2226" x1="136" y1="-97" x2="129.501" y2="159" gradientUnits="userSpaceOnUse">
<stop stop-color="#47B04E"/>
<stop offset="1" stop-color="#006999"/>
</linearGradient>
</defs>
</svg>
